<?xml version="1.0" encoding="utf-8"?>
<!-- Generator: Adobe Illustrator 21.1.0, SVG Export Plug-In . SVG Version: 6.00 Build 0)  -->
<svg version="1.1" id="Layer_1" xmlns="http://www.w3.org/2000/svg" xmlns:xlink="http://www.w3.org/1999/xlink" x="0px" y="0px"
	 viewBox="0 0 315 70" style="enable-background:new 0 0 315 70;" xml:space="preserve">
<style type="text/css">
	.st0{fill:url(#SVGID_1_);}
	.st1{clip-path:url(#SVGID_3_);}
	.st2{opacity:0.2;fill:#FFFFFF;enable-background:new    ;}
	.st3{fill:url(#SVGID_4_);}
	.st4{fill:url(#SVGID_5_);}
	.st5{fill:#FFFFFF;}
	.st6{fill-rule:evenodd;clip-rule:evenodd;fill:#FFFFFF;}
</style>
<title>MyEtherWalelt Logo</title>
<linearGradient id="SVGID_1_" gradientUnits="userSpaceOnUse" x1="57.5519" y1="65.4887" x2="-0.668" y2="-20.1913" gradientTransform="matrix(1 0 0 -1 0 69.89)">
	<stop  offset="0" style="stop-color:#1ABC9C"/>
	<stop  offset="1" style="stop-color:#1A5DAF"/>
</linearGradient>
<circle class="st0" cx="36.8" cy="35" r="32"/>
<g>
	<defs>
		<circle id="SVGID_2_" cx="36.8" cy="35" r="32"/>
	</defs>
	<clipPath id="SVGID_3_">
		<use xlink:href="#SVGID_2_"  style="overflow:visible;"/>
	</clipPath>
	<g class="st1">
		<path class="st2" d="M65.7,35.3l-10,24.5l-5.3-12.5l4.8-11.8h-2.6l-3.9,9.8l-3.9-9.8h-2.6L47,47.3l-5.3,12.5L31.7,35.3l-5-11.9
			l5.2-12.5l10,24.5h3L33.1,7.7h-2.4l-5.8,13.6L19,7.7h-2.4L5,35.4h2.9L18,10.8l5.3,12.5l-4.8,11.8H21l3.9-9.8l3.9,9.9L40.5,63h2.4
			l5.8-13.7L54.5,63H57l11.7-27.7C68.7,35.3,65.7,35.3,65.7,35.3z"/>
		
			<linearGradient id="SVGID_4_" gradientUnits="userSpaceOnUse" x1="36.6956" y1="66.5336" x2="27.7156" y2="6.5636" gradientTransform="matrix(1 0 0 -1 0 69.89)">
			<stop  offset="0" style="stop-color:#1ABC9C"/>
			<stop  offset="1" style="stop-color:#1A5DAF"/>
		</linearGradient>
		<path class="st3" d="M39.1,47.5c-0.8,0.2-1.6,0.3-2.3,0.3c-5.6,0-10.3-4.2-10.7-10.6c0.1-1.2,0.3-2.4,0.6-3.6L18,30
			c-0.9,2.5-1.4,5.1-1.4,7.7c0,10.8,9.3,19.6,20.1,19.6c2.5,0,5-0.5,7.3-1.4L39.1,47.5z"/>
		
			<linearGradient id="SVGID_5_" gradientUnits="userSpaceOnUse" x1="46.3245" y1="65.0893" x2="37.3345" y2="5.1193" gradientTransform="matrix(1 0 0 -1 0 69.89)">
			<stop  offset="0" style="stop-color:#1ABC9C"/>
			<stop  offset="1" style="stop-color:#1A5DAF"/>
		</linearGradient>
		<path class="st4" d="M36.8,17c-2.8,0-5.6,0.6-8.1,1.8l4.9,8.3c1.1-0.4,2.2-0.6,3.3-0.5c4.9,0,10.2,4.1,10.7,9.2l-14,0.1l21.9,9.3
			c1.1-2.6,1.6-5.5,1.5-8.3C56.8,26,47.6,17,36.8,17z"/>
		<path class="st5" d="M39.1,45.4c-0.8,0.2-1.6,0.3-2.3,0.3c-5.6,0-10.3-4.2-10.7-10.6c0.1-1.2,0.3-2.4,0.6-3.6L18,27.8
			c-0.9,2.5-1.4,5.1-1.4,7.7c0,10.8,9.3,19.6,20.1,19.6c2.5,0,5-0.5,7.3-1.4L39.1,45.4z M36.8,14.9c-2.8,0-5.6,0.6-8.1,1.8l4.9,8.3
			c1.1-0.4,2.2-0.6,3.3-0.5c4.9,0,10.2,4.1,10.7,9.2l-14,0.1L55.3,43c1.1-2.6,1.6-5.5,1.5-8.3C56.8,23.8,47.6,14.9,36.8,14.9z"/>
	</g>
</g>
<path class="st5" d="M103.5,43.8V31l-5,9.5h-2.1l-5-9.5v12.8h-3.7V24.5h4l5.7,11l5.8-11h4v19.3H103.5z M111.5,46.6
	c0.3,0.1,0.6,0.2,0.9,0.2c0.2,0,0.5,0.1,0.7,0.1c0.2,0,0.4,0,0.6-0.1c0.2-0.1,0.4-0.3,0.5-0.5c0.2-0.3,0.4-0.6,0.5-0.9
	c0.2-0.4,0.3-0.9,0.5-1.5l-5.6-14.2h3.7l3.8,11.1l3.4-11.1h3.4l-6,17.1c-0.3,1-1,1.8-1.8,2.4c-0.9,0.7-2,1-3.1,1
	c-0.3,0-0.6,0-0.9-0.1c-0.3-0.1-0.6-0.1-0.9-0.2L111.5,46.6L111.5,46.6z M140.1,40.5v3.3h-13.4V24.5h13.1v3.3h-9.4v4.6h8.1v3h-8.1v5
	H140.1L140.1,40.5z M151.1,43.1c-0.6,0.3-1.2,0.5-1.8,0.6c-0.7,0.2-1.5,0.3-2.2,0.3c-0.5,0-1-0.1-1.4-0.2c-0.4-0.1-0.8-0.3-1.2-0.6
	c-0.3-0.3-0.6-0.7-0.8-1.1c-0.2-0.5-0.3-1.1-0.3-1.6v-8.2h-1.9v-2.8h1.9V25h3.7v4.6h3v2.8h-3v7c0,0.4,0.1,0.8,0.4,1.1
	c0.3,0.2,0.6,0.3,1,0.3c0.4,0,0.8-0.1,1.1-0.2c0.4-0.1,0.7-0.2,0.9-0.3L151.1,43.1z M166.5,43.8h-3.6v-8c0.1-0.9-0.2-1.7-0.6-2.5
	c-0.4-0.5-1.1-0.8-1.8-0.8c-0.4,0-0.7,0.1-1,0.2c-0.4,0.2-0.7,0.4-1,0.6c-0.3,0.3-0.6,0.6-0.9,0.9c-0.3,0.4-0.5,0.8-0.6,1.2v8.3
	h-3.6V24h3.6v8.2c0.5-0.9,1.2-1.6,2.1-2.1c0.9-0.5,1.9-0.8,3-0.7c0.8,0,1.6,0.1,2.3,0.5c0.6,0.3,1,0.7,1.4,1.3
	c0.3,0.5,0.6,1.1,0.7,1.8c0.1,0.7,0.2,1.4,0.2,2.1L166.5,43.8L166.5,43.8z M176.5,44.1c-1.1,0-2.1-0.2-3.1-0.6
	c-1.8-0.7-3.2-2.1-3.9-3.9c-0.4-0.9-0.5-1.8-0.5-2.8c0-1,0.2-1.9,0.5-2.9c0.3-0.9,0.9-1.7,1.5-2.4c0.7-0.7,1.5-1.2,2.4-1.6
	c1-0.4,2.1-0.6,3.1-0.6c1.1,0,2.1,0.2,3.1,0.6c0.9,0.4,1.7,0.9,2.3,1.6c0.6,0.7,1.1,1.5,1.5,2.3c0.3,0.9,0.5,1.8,0.5,2.8v0.7
	c0,0.2,0,0.4-0.1,0.5h-11c0,0.5,0.2,1,0.4,1.5c0.4,0.8,1.1,1.5,2,1.8c0.4,0.2,0.9,0.2,1.4,0.2c0.7,0,1.4-0.2,2.1-0.5
	c0.6-0.3,1.1-0.8,1.3-1.4l3.1,0.9c-0.6,1.1-1.4,2-2.5,2.7C179.4,43.7,178,44.1,176.5,44.1L176.5,44.1z M180.2,35.5
	c0-1-0.5-1.9-1.2-2.6c-1.4-1.3-3.6-1.3-5,0c-0.3,0.3-0.6,0.7-0.8,1.1c-0.2,0.5-0.3,0.9-0.4,1.4L180.2,35.5L180.2,35.5z M194.9,32.7
	c-1,0-2,0.2-3,0.6c-0.8,0.4-1.5,1-1.9,1.8v8.6h-3.6V29.6h3.3v3.1c0.2-0.5,0.5-0.9,0.9-1.3c0.3-0.4,0.7-0.7,1.1-1
	c0.4-0.3,0.8-0.5,1.2-0.7c0.4-0.1,0.8-0.2,1.2-0.2h0.4c0.1,0,0.2,0,0.3,0L194.9,32.7L194.9,32.7z M204.2,24.6h3.5l2.2,6.4l2.2-6.4
	h3.5l-3.3,8.8l2.4,6.2l5.5-15h4.1l-7.8,19.3h-3.1l-3.3-8.1l-3.3,8.1h-3.1l-7.8-19.3h4l5.5,15l2.4-6.2L204.2,24.6z M228.6,44.1
	c-0.7,0-1.3-0.1-1.9-0.3c-0.6-0.2-1.1-0.5-1.5-1c-0.4-0.4-0.8-0.9-1-1.4c-0.2-0.6-0.4-1.2-0.4-1.8c0-0.6,0.1-1.3,0.4-1.9
	c0.3-0.6,0.7-1.1,1.2-1.4c0.6-0.4,1.2-0.8,1.9-1c0.8-0.2,1.6-0.3,2.4-0.3c0.6,0,1.2,0.1,1.9,0.2c0.6,0.1,1.1,0.2,1.6,0.5v-0.8
	c0.1-0.8-0.2-1.6-0.8-2.2c-0.7-0.5-1.5-0.8-2.4-0.8c-0.8,0-1.5,0.1-2.2,0.4c-0.8,0.3-1.5,0.7-2.2,1.2l-1.1-2.3
	c1.8-1.2,3.8-1.8,5.9-1.8c1.7-0.1,3.4,0.4,4.7,1.5c1.2,1.1,1.8,2.7,1.7,4.4v4.4c0,0.3,0,0.6,0.2,0.8c0.2,0.2,0.4,0.3,0.7,0.3v3.1
	c-0.5,0.1-1.1,0.2-1.6,0.2c-0.6,0-1.1-0.1-1.6-0.5c-0.4-0.3-0.6-0.7-0.7-1.2l-0.1-0.8c-0.6,0.8-1.4,1.5-2.3,1.9
	C230.6,43.9,229.6,44.1,228.6,44.1L228.6,44.1z M229.7,41.4c0.6,0,1.2-0.1,1.8-0.3c0.5-0.2,0.9-0.5,1.3-0.9c0.4-0.2,0.6-0.6,0.6-1
	v-1.6c-0.5-0.2-0.9-0.3-1.4-0.4c-0.5-0.1-1-0.1-1.5-0.2c-0.8,0-1.6,0.2-2.3,0.6c-0.6,0.4-0.9,1-0.9,1.6c0,0.6,0.2,1.2,0.7,1.5
	C228.4,41.2,229,41.4,229.7,41.4L229.7,41.4z M240.6,24h3.6v15.3c0,0.4,0.1,0.9,0.4,1.2c0.3,0.3,0.7,0.5,1.1,0.4
	c0.2,0,0.5,0,0.7-0.1c0.3-0.1,0.5-0.2,0.7-0.3l0.5,2.8c-0.5,0.3-1.1,0.4-1.7,0.5c-0.6,0.1-1.2,0.2-1.8,0.2c-1,0.1-1.9-0.2-2.7-0.9
	c-0.7-0.7-1-1.6-0.9-2.6L240.6,24L240.6,24z M249.5,24h3.6v15.3c0,0.4,0.1,0.9,0.4,1.2c0.3,0.3,0.7,0.5,1.1,0.4c0.2,0,0.5,0,0.7-0.1
	c0.3-0.1,0.5-0.2,0.7-0.3l0.5,2.8c-0.5,0.3-1.1,0.4-1.7,0.5c-0.6,0.1-1.2,0.2-1.8,0.2c-1,0.1-1.9-0.2-2.7-0.9
	c-0.7-0.7-1-1.6-0.9-2.6L249.5,24L249.5,24z M265,44.1c-1.1,0-2.1-0.2-3.1-0.6c-1.8-0.7-3.2-2.1-3.9-3.9c-0.4-0.9-0.5-1.8-0.5-2.8
	c0-1,0.2-1.9,0.5-2.9c0.3-0.9,0.8-1.7,1.5-2.4c0.7-0.7,1.5-1.2,2.4-1.6c1-0.4,2.1-0.6,3.1-0.6c1.1,0,2.1,0.2,3.1,0.6
	c0.9,0.4,1.7,0.9,2.3,1.6c0.6,0.7,1.1,1.5,1.5,2.3c0.3,0.9,0.5,1.8,0.5,2.7v0.7c0,0.2,0,0.4-0.1,0.5h-11c0,0.5,0.2,1,0.4,1.5
	c0.4,0.8,1.1,1.5,2,1.8c0.4,0.2,0.9,0.2,1.4,0.2c0.7,0,1.4-0.2,2.1-0.5c0.6-0.3,1.1-0.8,1.3-1.4l3.1,0.9c-0.6,1.1-1.4,2-2.5,2.7
	C267.9,43.7,266.4,44.1,265,44.1z M268.7,35.5c0-1-0.5-1.9-1.2-2.6c-1.4-1.3-3.6-1.3-5,0c-0.3,0.3-0.6,0.7-0.8,1.1
	c-0.2,0.5-0.3,0.9-0.4,1.4L268.7,35.5L268.7,35.5z M283.3,43.1c-0.6,0.3-1.2,0.5-1.8,0.6c-0.7,0.2-1.5,0.3-2.2,0.3
	c-0.5,0-1-0.1-1.4-0.2c-0.4-0.1-0.8-0.3-1.2-0.6c-0.3-0.3-0.6-0.7-0.8-1.1c-0.2-0.5-0.3-1.1-0.3-1.6v-8.2h-1.9v-2.8h1.9V25h3.6v4.6
	h3v2.8h-3v7c0,0.4,0.1,0.8,0.4,1.1c0.3,0.2,0.6,0.3,1,0.3c0.4,0,0.8-0.1,1.1-0.2c0.4-0.1,0.7-0.2,0.9-0.3L283.3,43.1z"/>
<g>
	<g>
		<path class="st6" d="M261,51.2v-1.9h7.6v1.9H261z M259.1,53.1v-1.9h1.9v1.9H259.1z M261,55v-1.9h5.7V55H261z M266.7,56.9V55h1.9
			v1.9H266.7z M259.1,58.8v-1.9h7.6v1.9H259.1z M247.7,56.9v-7.6h1.9v7.6H247.7z M249.6,58.8v-1.9h7.6v1.9H249.6z M238.2,51.2v-1.9
			h5.7v1.9H238.2z M243.9,53.1v-1.9h1.9v1.9H243.9z M236.4,56.9v-5.7h1.9v1.9h5.7V55h-5.7v1.9H236.4z M238.2,58.8v-1.9h7.6v1.9
			H238.2z M232.6,51.2v-1.9h1.9v1.9H232.6z M225,51.2v-1.9h1.9v1.9H225z M230.7,53.1v-1.9h1.9v1.9H230.7z M226.9,53.1v-1.9h1.9v1.9
			H226.9z M228.8,55v-1.9h1.9V55H228.8z M230.7,56.9V55h1.9v1.9H230.7z M226.9,56.9V55h1.9v1.9H226.9z M232.6,58.8v-1.9h1.9v1.9
			H232.6z M225,58.8v-1.9h1.9v1.9H225z M221.2,51.2v-1.9h1.9v1.9H221.2z M221.2,58.8v-5.7h1.9v5.7H221.2z M209.8,58.8v-9.5h7.6v1.9
			h-5.7V55h5.7v1.9h-5.7v1.9H209.8z M217.4,55v-3.8h1.9V55H217.4z"/>
		<path class="st6" d="M309.7,51.9c-0.1-0.6-0.6-1.1-1.1-1.1c-1.2-0.1-2.3,0.3-3,1.4c-0.4,0.5-0.7,1.1-1.1,1.7
			c-0.1,0.1-0.2,0.2-0.3,0.5c0-0.8,0.1-1.4,0.1-2c-0.1-1.6-0.3-1.7-1.8-1.7c-0.2,0-0.3,0-0.5,0c-0.4,0.1-0.5,0.4-0.4,0.8
			c0.1,0.1,0.1,0.3,0.1,0.4l-0.1,1.6c-0.1,1.1-0.2,1.8-0.4,2.4c-0.2,0.3-0.5,0.6-0.7,0.9c-0.2,0.2-0.5,0.6-0.8,0.8
			c-0.3-0.6-0.2-1.1-0.1-1.6c0.2-1.1,0.4-2.2,0.6-3.3c0-0.3,0-0.5-0.3-0.6c-0.6-0.2-1.5,0.4-1.9,1.1c-0.5,0.6-1.4,1.7-2,2.3
			l-0.4,0.4c0-1.4,0.4-2.7,0-4c-0.8-0.3-1.5-0.1-2,0.5l-1.8,2.1l-0.5,0.6c0-1.1,0.1-2.1,0.1-3.1c0-0.3,0-0.6-0.3-0.7
			c-0.6-0.1-1.2-0.4-1.8,0c0,0.2,0,0.3,0,0.4c0,1-0.1,1.8-0.3,2.6c0,0.1-0.1,0.6-0.1,0.6c0,0.3,0,0.6,0,0.9c0,0.1,0,0.2,0,0.3
			c-0.6,0.5-1.1,1.1-1.5,1.6c0-0.1,0-0.3,0-0.4c0-0.9,0.2-1.8,0.5-2.6c0.3-0.9,0.2-1.1-0.8-1.2c-0.1,0-0.2,0-0.4,0
			c-0.3-0.1-0.5,0-0.7,0.3c-0.4,0.5-0.9,1.1-1.2,1.7c-0.4,0.7-0.8,1.4-1.3,2.2c-0.1,0.1-0.2,0.2-0.4,0.4v-0.7c0-0.8,0.2-1.6,0.5-2.4
			c0.2-0.8,0.5-1.5,1-2.2c0.2-0.3,0.5-0.5,0.9-0.5c0.3,0,0.6-0.1,1-0.1c-0.1-0.2-0.2-0.4-0.3-0.4c-0.3-0.1-0.7-0.2-1-0.3
			c-0.5-0.1-1.1,0-1.6-0.1c-0.3,0-0.6,0.1-0.7,0.4c-0.2,0.3-0.4,0.6-0.5,0.9c-0.4,0.9-0.9,1.6-1.2,3.1c0,0.1,0,0.3-0.1,0.4
			c-0.5,0.5-0.9,1.1-1.3,1.5c-0.1,0.2-1.1,1.5-1.4,1.7c-0.2-0.4-0.5-0.7-0.6-1c-0.3-0.5-0.4-1.1-0.3-1.7c0.1-0.8,0-1.6,0.1-2.4
			c0.1-1,0.3-1.9,0.5-2.8c0.1-0.3,0.3-0.7,0.5-0.9c0.1-0.2,0.4-0.2,0.7-0.4c0,0.4,0,0.7-0.1,0.9c0,0.6-0.1,1.2-0.2,1.7
			c-0.1,0.7,0.1,1,0.7,1.1c0.1-0.3,0.3-0.7,0.4-1.1c0.2-1,0.4-2,1.1-2.7c-0.1-0.1-0.1-0.1-0.2-0.2c-1.2-0.3-2.4-0.6-3.6-0.6
			c-0.1,0-0.3,0.1-0.4,0.3c-0.4,0.7-0.9,1.4-1.2,2.1c-0.6,1.7-0.7,3.4-0.7,5.2l0.4,1.4l0.9,0.9c0.9,1,2.5,1.6,3.7-0.9
			c0.4-0.6,0.6-0.9,0.8-1.3c0,0.8,0.1,1.4,0.1,1.5c0.4,0.6,0.9,0.8,1.6,0.9c0.8,0.1,1.3,0,1.8-0.9c0.2-0.4,0.4-0.8,0.7-1.3
			c0.2,0.5,0.3,0.9,0.5,1.2c0.4,0.9,1.7,1.1,2.3,0.3c0.3-0.5,0.7-1,1.2-1.8c0.2,0.2,0.4,0.4,0.7,0.5l0.4,0.2
			c0.4,0.2,0.4-0.4,0.7-0.7c0.2-0.3,0.5-0.6,0.7-0.9c0.4-0.7,0.9-1.3,1.3-2c0.2-0.3,0.6-1.1,1-1.3c0,0.5-0.2,1.7-0.2,2
			c0,0.6-0.1,1.1,0,1.7c0,0.6,0.9,1.3,1.5,1.2c0.1,0,0.3-0.1,0.3-0.2l1-1.2c0.1-0.2,1.7-2.6,2-2.9c0,0.4-1.3,3-0.8,4.4
			c0.8,0.6,2,1,3-0.1c0-0.1,0.1-0.2,0.1-0.3c0,0.1,0,0.2,0,0.2c-0.2,1.2-0.4,2.1-0.5,2.6c-0.1,1-0.1,2,0.8,2.6
			c0.9,0.6,1.8,0.2,2.3,0c0.2-0.1,0.1-0.7-0.1-0.6c-0.6,0.2-0.9-0.8-0.7-2.2c0.3-1.9,0.9-3.7,0.9-3.7c0.8-1.4,2.6-3.7,3.5-4.4
			c0.1-0.1,0.3-0.2,0.5-0.3c0.2,0.2,0.2,0.7,0.2,0.8c-0.2,1.8-1.1,3-2.3,4.1c-0.2,0.2-0.5,0.5-0.6,0.8c-0.1,0.1,0,0.2,0,0.3
			c0.5,0.4,1.3,0.4,2.5-0.7c0.9-0.8,1.6-1.9,1.8-2.8C309.6,53.7,309.7,52.3,309.7,51.9z"/>
	</g>
</g>
</svg>
