<svg xmlns="http://www.w3.org/2000/svg" viewBox="0 0 179.45 178.83"><title>Asset 1</title><g style="isolation:isolate"><g id="4523a218-3e09-4ae4-9d49-91bdf0d19dfb" data-name="Layer 2"><g id="37b7a21d-06e8-4fd5-b28c-72a56950e3e5" data-name="Layer 1"><path d="M9.69,45A39.86,39.86,0,0,0,6.4,55.63C3.61,73-1.8,87.65.59,105.19c1.56,11.45,5.55,30.52,14.85,38.89,0,0,24.16,21.91,37.73,28.76,0,0,39.49,13,70.62.68,0,0,32-14.61,52.73-54.48,0,0,20.56-67.37-47.37-112.77,0,0-39.82-17.68-87.56,6.33C29.6,21.63,16.11,31.29,9.69,45Z" style="fill:#999"/><path d="M9,61.92a37.5,37.5,0,0,0-1.5,10.36c0,16.57-2.93,31,1.87,46.95,3.13,10.41,9.63,27.57,19.52,34,0,0,25.69,16.84,39.31,21.22,0,0,38.64,6.29,65.79-9.72,0,0,27.67-18.29,41.05-58.4,0,0,9.25-65.68-60.59-98,0,0-39.63-10.6-80.51,18.73C24.08,37.26,13,48.21,9,61.92Z" style="fill:gray"/><circle cx="55.65" cy="112.16" r="31.95" transform="translate(-43.45 35.64) rotate(-25.94)" style="fill:#ccc"/><circle cx="118.82" cy="112.17" r="23.1" transform="translate(-37.09 63.27) rotate(-25.94)" style="fill:#ccc"/><circle cx="95.86" cy="61.12" r="27.28" transform="translate(-17.08 48.08) rotate(-25.94)" style="fill:#ccc"/><circle cx="49.69" cy="59.92" r="21.99" transform="translate(-21.21 27.77) rotate(-25.94)" style="fill:#ccc"/><path d="M12.69,63.12s-10.33,34.12,14,70.46c8.55,8.84,17.75,18.82,29.54,22.64a32.49,32.49,0,0,0,9,1.6c14.39.51,26.83,3.42,40.83-.29,9.14-2.43,24.22-7.59,30.08-16,0,0,15.36-21.84,19.54-33.54,0,0,6.57-33.39-6.58-57.42,0,0-15.1-24.55-49.57-37.31C99.48,13.26,42.7,3.38,12.69,63.12Zm63.59,64.5A32.52,32.52,0,0,1,52.07,137c-4.24-.92-9-1.81-12.23-4.71a10.93,10.93,0,0,1-2.08-2.45c-2.72-4.33-5.83-7.6-7.17-12.63-.88-3.28-2-8.93-.42-12.36,0,0,4-9,6.87-12.52,0,0,9.12-8.49,18.87-9.11,0,0,10.25-.11,20.32,8C76.22,91.24,89.35,106.81,76.28,127.63Zm56.84-23s3.59,10-6.54,17.73a16.89,16.89,0,0,1-13.47.19c-1.9-1.21-4-2.5-5.11-4.5a5.91,5.91,0,0,1-.57-1.57c-.54-2.6-1.46-4.75-1.21-7.44.17-1.76.65-4.7,2-6.09a41.4,41.4,0,0,1,5.6-4.86s6-2.49,10.83-1A18.05,18.05,0,0,1,133.12,104.67ZM94.82,67.16s4.74,5.61,0,13.11a11.7,11.7,0,0,1-8.72,3.37A9.6,9.6,0,0,1,81.71,82a4,4,0,0,1-.75-.88c-1-1.56-2.1-2.74-2.58-4.55-.31-1.18-.71-3.22-.15-4.46a28.91,28.91,0,0,1,2.48-4.51s3.29-3.06,6.8-3.28A12.54,12.54,0,0,1,94.82,67.16ZM67.68,55.62c.94,6.69-3.48,13.82-3.48,13.82-2,2.34-7.43,6-7.43,6-2.09,1.43-6,1.31-8.33,1.07-3.55-.36-6.17-2.12-9.44-3.49a8.13,8.13,0,0,1-1.93-1.15c-2.39-1.91-3.64-5-4.84-7.79a21.89,21.89,0,0,1,2.91-17.48c12.13-11.17,24.36-3.94,24.36-3.94A25.29,25.29,0,0,1,67.68,55.62ZM89.23,54.5A9.18,9.18,0,0,1,82,53.42a7.54,7.54,0,0,1-2.34-2.86,3.31,3.31,0,0,1-.17-.89,13,13,0,0,1,0-4.09,6,6,0,0,1,1.62-3.09,22.37,22.37,0,0,1,3.43-2.11s3.42-.81,5.89.4a9.81,9.81,0,0,1,3.86,4.8S95.34,51.22,89.23,54.5Zm28.54-6.23a12.67,12.67,0,0,1,1.8,1.3,5.68,5.68,0,0,1,1,3.1,5.43,5.43,0,0,1-1.64,3,4.83,4.83,0,0,1-5.63-.69,5.09,5.09,0,0,1-1-3.93,4.17,4.17,0,0,1,1-1.8,1.74,1.74,0,0,1,.42-.28,7.21,7.21,0,0,1,2.09-.87A3.39,3.39,0,0,1,117.78,48.27Z" style="fill:#b3b3b3"/><g style="mix-blend-mode:multiply"><path d="M62.88,135.56l.71-.22Z" style="fill:#b3b3b3"/><path d="M61.16,136l.76-.19Z" style="fill:#b3b3b3"/><path d="M63.77,135.28l.59-.2Z" style="fill:#b3b3b3"/><path d="M62.09,135.79l.63-.18Z" style="fill:#b3b3b3"/><path d="M64.51,135l.67-.25Z" style="fill:#b3b3b3"/><path d="M66,134.44l.63-.27Z" style="fill:#b3b3b3"/><path d="M65.35,134.71l.56-.22Z" style="fill:#b3b3b3"/><path d="M33.4,98.21l-.1.19Z" style="fill:#b3b3b3"/><path d="M60.3,136.23l.67-.15Z" style="fill:#b3b3b3"/><path d="M80.36,99l.17.5Z" style="fill:#b3b3b3"/><path d="M80.71,100.06l.16.53Z" style="fill:#b3b3b3"/><path d="M80.54,99.53l.16.51Z" style="fill:#b3b3b3"/><path d="M60.14,136.27l-.8.16Z" style="fill:#b3b3b3"/><path d="M80,98a28.75,28.75,0,0,0-3-5.79A28.78,28.78,0,0,1,80,98Z" style="fill:#b3b3b3"/><path d="M66.83,134.09l.54-.25Z" style="fill:#b3b3b3"/><path d="M73.83,129.85l-.36.28Z" style="fill:#b3b3b3"/><path d="M69.33,132.85l-.55.3Z" style="fill:#b3b3b3"/><path d="M74.52,129.28l-.32.27Z" style="fill:#b3b3b3"/><path d="M70.51,132.16l-.49.29Z" style="fill:#b3b3b3"/><path d="M67.46,133.8l.59-.28Z" style="fill:#b3b3b3"/><path d="M71.11,131.79l-.48.3Z" style="fill:#b3b3b3"/><path d="M37.26,96.21a42.17,42.17,0,0,0-4,2.19c-1.4,2.67-2.58,5.22-3,6.11.21-.47.64-1.4,1.2-2.56A40.93,40.93,0,0,0,74.83,129l-.3.25a19,19,0,0,0,1.75-1.65c6.9-11,6.5-20.49,4.59-27A41.72,41.72,0,0,0,37.26,96.21Z" style="fill:#b3b3b3"/><path d="M68.73,133.17l-.52.27Z" style="fill:#b3b3b3"/><path d="M70,132.47l-.52.3Z" style="fill:#b3b3b3"/><path d="M80.18,98.51l.18.49Z" style="fill:#b3b3b3"/><path d="M73.42,130.17l-.35.27Z" style="fill:#b3b3b3"/><path d="M74.18,129.57l-.32.26Z" style="fill:#b3b3b3"/><path d="M72.12,131.12l-.44.3Z" style="fill:#b3b3b3"/><path d="M73,130.47l-.4.29Z" style="fill:#b3b3b3"/><path d="M71.58,131.48l-.44.28Z" style="fill:#b3b3b3"/><path d="M72.55,130.82l-.39.28Z" style="fill:#b3b3b3"/><path d="M36.78,92.64l-.08.11Z" style="fill:#b3b3b3"/><path d="M80,98l.18.48Z" style="fill:#b3b3b3"/><path d="M36.52,93l-.09.13Z" style="fill:#b3b3b3"/><path d="M30.2,104.76l0,0Z" style="fill:#b3b3b3"/><path d="M30.23,104.69l.08-.18Z" style="fill:#b3b3b3"/><path d="M35.64,94.3l-.08.13Z" style="fill:#b3b3b3"/><path d="M36.26,93.37l-.09.14Z" style="fill:#b3b3b3"/><path d="M36,93.8l-.07.1Z" style="fill:#b3b3b3"/><path d="M35.37,94.74l-.1.17Z" style="fill:#b3b3b3"/><path d="M54.3,137l.87,0Z" style="fill:#b3b3b3"/><path d="M53.28,137l.95,0Z" style="fill:#b3b3b3"/><path d="M55.39,136.92l.9-.07Z" style="fill:#b3b3b3"/><path d="M58.4,136.58l.73-.12Z" style="fill:#b3b3b3"/><path d="M56.4,136.84l.79-.09Z" style="fill:#b3b3b3"/><path d="M52.07,137h0Z" style="fill:#b3b3b3"/><path d="M57.41,136.72l.85-.12Z" style="fill:#b3b3b3"/><path d="M30.17,104.84v0Z" style="fill:#b3b3b3"/><path d="M76.42,91.49l.07.1Z" style="fill:#b3b3b3"/><path d="M76.35,91.4l.06.08Z" style="fill:#b3b3b3"/><path d="M76.5,91.6l.09.11Z" style="fill:#b3b3b3"/><path d="M76.82,92l.13.18Z" style="fill:#b3b3b3"/><path d="M76.6,91.73l.1.13Z" style="fill:#b3b3b3"/><path d="M76.29,91.33l0,.06Z" style="fill:#b3b3b3"/><path d="M76.7,91.88l.11.16Z" style="fill:#b3b3b3"/><path d="M34.82,95.65l-.1.17Z" style="fill:#b3b3b3"/><path d="M34.49,96.24l-.09.16Z" style="fill:#b3b3b3"/><path d="M35.1,95.18l-.11.18Z" style="fill:#b3b3b3"/><path d="M34.2,96.74l-.11.2Z" style="fill:#b3b3b3"/><path d="M33.94,97.22l-.12.22Z" style="fill:#b3b3b3"/><path d="M76.22,91.25v0Z" style="fill:#b3b3b3"/><path d="M33.67,97.71l-.11.21Z" style="fill:#b3b3b3"/><path d="M76.25,91.28l0,0Z" style="fill:#b3b3b3"/></g><path d="M37.26,96.21a41.72,41.72,0,0,1,43.61,4.38,27.7,27.7,0,0,0-4.65-9.35c-10.06-8.14-20.32-8-20.32-8C46.16,83.82,37,92.32,37,92.32A41.67,41.67,0,0,0,33.3,98.4,42.17,42.17,0,0,1,37.26,96.21Z" style="fill:#999;mix-blend-mode:multiply"/><path d="M33.32,106.27a41.33,41.33,0,0,1-1.8-4.32c-.82,1.69-1.35,2.89-1.35,2.89-1.55,3.43-.46,9.08.42,12.36,1.34,5,4.45,8.29,7.17,12.63a10.93,10.93,0,0,0,2.08,2.45c3.27,2.89,8,3.79,12.23,4.71a33.15,33.15,0,0,0,22.76-8A40.92,40.92,0,0,1,33.32,106.27Z" style="fill:#ccc;mix-blend-mode:multiply"/><g style="mix-blend-mode:multiply"><path d="M67.15,53.82c.12.34.21.63.28.88C67.36,54.45,67.27,54.15,67.15,53.82Z" style="fill:#b3b3b3"/><path d="M67.44,54.7l.12.44Z" style="fill:#b3b3b3"/><path d="M67.15,53.82a23.69,23.69,0,0,0-1-2.43A23.69,23.69,0,0,1,67.15,53.82Z" style="fill:#b3b3b3"/><path d="M33,50.67a17.3,17.3,0,0,1,2.09-4A17.3,17.3,0,0,0,33,50.67Z" style="fill:#b3b3b3"/><path d="M62.48,71.11l-.59.51Z" style="fill:#b3b3b3"/><path d="M61.89,71.62l-.93.75Z" style="fill:#b3b3b3"/><path d="M33.46,66.91a24.76,24.76,0,0,0,30.92,2.21l-.19.32a15.65,15.65,0,0,1-1.42,1.43,15.65,15.65,0,0,0,1.42-1.43s3.93-6.34,3.59-12.67A24.74,24.74,0,0,0,33,50.67a22.88,22.88,0,0,0-.81,13.44c.48,1.11,1,2.28,1.54,3.4Z" style="fill:#b3b3b3"/><path d="M67.74,56.19q0,.28,0,.57C67.77,56.57,67.76,56.38,67.74,56.19Z" style="fill:#b3b3b3"/><path d="M35.87,70.76l-.09-.11Z" style="fill:#b3b3b3"/><path d="M36.23,71.15l0,0Z" style="fill:#b3b3b3"/><path d="M35.16,69.87l-.1-.14Z" style="fill:#b3b3b3"/><path d="M34,67.93l-.14-.26Z" style="fill:#b3b3b3"/><path d="M36.67,71.57l-.1-.09Z" style="fill:#b3b3b3"/><path d="M35.5,70.32l0-.06Z" style="fill:#b3b3b3"/><path d="M34.85,69.42l-.1-.15Z" style="fill:#b3b3b3"/><path d="M34.27,68.48l-.18-.32Z" style="fill:#b3b3b3"/><path d="M34.53,68.92l-.11-.19Z" style="fill:#b3b3b3"/></g><path d="M36.6,48.55a24.73,24.73,0,0,1,31.19,8.21c0-.38-.05-.77-.11-1.15a25.29,25.29,0,0,0-8.19-12.92s-12.24-7.23-24.36,3.94a17.31,17.31,0,0,0-2.1,4A24.89,24.89,0,0,1,36.6,48.55Z" style="fill:#999;mix-blend-mode:multiply"/><path d="M56.76,75.47s5.44-3.69,7.43-6l.19-.32a24.76,24.76,0,0,1-30.92-2.21,13.86,13.86,0,0,0,3.6,5A8.13,8.13,0,0,0,39,73.05c3.28,1.37,5.89,3.13,9.44,3.49C50.75,76.78,54.68,76.9,56.76,75.47Z" style="fill:#ccc;mix-blend-mode:multiply"/><path d="M106.62,118.45c.1.4.2.81.28,1.23a4.87,4.87,0,0,0,.48,1.32c.91,1.68,2.73,2.76,4.36,3.77a14.92,14.92,0,0,0,11.32-.14C116.92,125,111.57,126.15,106.62,118.45Z" style="fill:#e6e6e6;opacity:0.30000000000000004;mix-blend-mode:screen"/><path d="M133.44,105.89l0-.18Z" style="fill:#b3b3b3;mix-blend-mode:multiply"/><path d="M133.39,105.67l-.09-.36Z" style="fill:#b3b3b3;mix-blend-mode:multiply"/><path d="M133.49,106.17l0-.24Z" style="fill:#b3b3b3;mix-blend-mode:multiply"/><path d="M133.22,105l0-.09Z" style="fill:#b3b3b3;mix-blend-mode:multiply"/><path d="M133.18,104.87l0-.07Z" style="fill:#b3b3b3;mix-blend-mode:multiply"/><path d="M133.26,105.13l0-.13Z" style="fill:#b3b3b3;mix-blend-mode:multiply"/><path d="M133.3,105.28l0-.13Z" style="fill:#b3b3b3;mix-blend-mode:multiply"/><path d="M133.65,107.31l0-.26Z" style="fill:#b3b3b3;mix-blend-mode:multiply"/><path d="M111.3,121.4l-.71-.51Z" style="fill:#b3b3b3;mix-blend-mode:multiply"/><path d="M107.24,115.7l0,.15Z" style="fill:#b3b3b3;mix-blend-mode:multiply"/><path d="M133.58,106.7l0-.24Z" style="fill:#b3b3b3;mix-blend-mode:multiply"/><path d="M133.62,107l0-.29Z" style="fill:#b3b3b3;mix-blend-mode:multiply"/><path d="M133.53,106.41l0-.24Z" style="fill:#b3b3b3;mix-blend-mode:multiply"/><path d="M113.85,98.12l-.29.19Z" style="fill:#b3b3b3;mix-blend-mode:multiply"/><path d="M112.82,98.83l.31-.23Z" style="fill:#b3b3b3;mix-blend-mode:multiply"/><path d="M113.19,98.56l.3-.21Z" style="fill:#b3b3b3;mix-blend-mode:multiply"/><path d="M114.63,97.83c-.5.17-.78.29-.78.29h0S114.13,98,114.63,97.83Z" style="fill:#b3b3b3;mix-blend-mode:multiply"/><path d="M112.81,98.84l-.34.26Z" style="fill:#b3b3b3;mix-blend-mode:multiply"/><path d="M115.11,97.68l.57-.17Z" style="fill:#b3b3b3;mix-blend-mode:multiply"/><path d="M111.67,99.76l.35-.3Z" style="fill:#b3b3b3;mix-blend-mode:multiply"/><path d="M126.27,122.55l.31-.15c6.85-5.26,7.43-11.52,7.08-15,0,.1,0,.2,0,.31-7.86-11.78-14.44-8.91-22.78-7.25l.36-.32c-1.58,1.39-3,2.87-3,2.87-1.37,1.39-1.86,4.34-2,6.09a16.78,16.78,0,0,0,.87,6A24.8,24.8,0,0,0,126.27,122.55Z" style="fill:#b3b3b3;mix-blend-mode:multiply"/><path d="M133.13,104.71v0Z" style="fill:#b3b3b3;mix-blend-mode:multiply"/><path d="M111.3,100.08l.37-.32Z" style="fill:#b3b3b3;mix-blend-mode:multiply"/><path d="M133.16,104.78l0-.06Z" style="fill:#b3b3b3;mix-blend-mode:multiply"/><path d="M112.07,99.43l.34-.28Z" style="fill:#b3b3b3;mix-blend-mode:multiply"/><path d="M125.2,123l.1,0Z" style="fill:#b3b3b3;mix-blend-mode:multiply"/><path d="M118.89,123.86h0Z" style="fill:#b3b3b3;mix-blend-mode:multiply"/><path d="M118.32,123.82h0Z" style="fill:#b3b3b3;mix-blend-mode:multiply"/><path d="M121.68,123.76h0Z" style="fill:#b3b3b3;mix-blend-mode:multiply"/><path d="M119.45,123.87h0Z" style="fill:#b3b3b3;mix-blend-mode:multiply"/><path d="M107.82,117.72q.08.19.18.37a9,9,0,0,0,2.59,2.81,9,9,0,0,1-2.59-2.81Q107.9,117.91,107.82,117.72Z" style="fill:#b3b3b3;mix-blend-mode:multiply"/><path d="M120.58,123.85h0Z" style="fill:#b3b3b3;mix-blend-mode:multiply"/><path d="M117.74,123.77h0Z" style="fill:#b3b3b3;mix-blend-mode:multiply"/><path d="M114.41,123.05l.24.07Z" style="fill:#b3b3b3;mix-blend-mode:multiply"/><path d="M115.06,123.24l.24.07Z" style="fill:#b3b3b3;mix-blend-mode:multiply"/><path d="M117,123.67l.11,0Z" style="fill:#b3b3b3;mix-blend-mode:multiply"/><path d="M116.34,123.55l.2,0Z" style="fill:#b3b3b3;mix-blend-mode:multiply"/><path d="M115.7,123.41l.23.05Z" style="fill:#b3b3b3;mix-blend-mode:multiply"/><path d="M120,123.87h0Z" style="fill:#b3b3b3;mix-blend-mode:multiply"/><path d="M125.46,122.87l.1,0Z" style="fill:#b3b3b3;mix-blend-mode:multiply"/><path d="M122.14,123.7l.12,0Z" style="fill:#b3b3b3;mix-blend-mode:multiply"/><path d="M125.69,122.79l.1,0Z" style="fill:#b3b3b3;mix-blend-mode:multiply"/><path d="M113.76,122.83l.21.07Z" style="fill:#b3b3b3;mix-blend-mode:multiply"/><path d="M125.88,122.71l.38-.16Z" style="fill:#b3b3b3;mix-blend-mode:multiply"/><path d="M124.62,123.16l.09,0Z" style="fill:#b3b3b3;mix-blend-mode:multiply"/><path d="M124.92,123.06l.1,0Z" style="fill:#b3b3b3;mix-blend-mode:multiply"/><path d="M122.59,123.63l.12,0Z" style="fill:#b3b3b3;mix-blend-mode:multiply"/><path d="M123,123.55l.11,0Z" style="fill:#b3b3b3;mix-blend-mode:multiply"/><path d="M123.45,123.46l.09,0Z" style="fill:#b3b3b3;mix-blend-mode:multiply"/><path d="M123.91,123.35h0Z" style="fill:#b3b3b3;mix-blend-mode:multiply"/><path d="M124.29,123.25h0Z" style="fill:#b3b3b3;mix-blend-mode:multiply"/><path d="M107.08,115.06c.12.47.24,1,.34,1.46a5.91,5.91,0,0,0,.57,1.57c1.08,2,3.21,3.29,5.11,4.5a17.07,17.07,0,0,0,13.16,0A24.8,24.8,0,0,1,107.08,115.06Z" style="fill:#ccc;mix-blend-mode:multiply"/><path d="M133.69,107.69a12.73,12.73,0,0,0-.57-3,18.05,18.05,0,0,0-8.44-7.57c-4.86-1.46-10.83,1-10.83,1a21.61,21.61,0,0,0-2.94,2.31C119.24,98.77,125.51,95.95,133.69,107.69Z" style="fill:#666;mix-blend-mode:multiply"/><g style="mix-blend-mode:multiply"><path d="M84.52,65l.4-.17Z" style="fill:#b3b3b3"/><path d="M83.57,65.52l.39-.21Z" style="fill:#b3b3b3"/><path d="M85,64.86l.43-.16Z" style="fill:#b3b3b3"/><path d="M90.15,83.08l.23-.08Z" style="fill:#b3b3b3"/><path d="M79.63,79A24.85,24.85,0,0,0,91.19,82.7l-.76.29a11.12,11.12,0,0,0,4.44-2.74c4.46-7.1.46-12.51,0-13.07a10,10,0,0,1,1.45,2.74,24.84,24.84,0,0,0-12.77-4.4,15.73,15.73,0,0,0-2.84,2A28.92,28.92,0,0,0,78.25,72c-.56,1.24-.16,3.27.15,4.46a11.23,11.23,0,0,0,1.94,3.59C80.1,79.74,79.86,79.39,79.63,79Z" style="fill:#b3b3b3"/><path d="M86.5,64.39l.46-.08Z" style="fill:#b3b3b3"/><path d="M86,64.51l.42-.11Z" style="fill:#b3b3b3"/><path d="M85.49,64.66l.45-.14Z" style="fill:#b3b3b3"/><path d="M84.44,65.08l-.4.19Z" style="fill:#b3b3b3"/><path d="M86.61,83.63h0Z" style="fill:#b3b3b3"/><path d="M80.63,80.5l0,.06Z" style="fill:#b3b3b3"/><path d="M89.68,83.22l.37-.1Z" style="fill:#b3b3b3"/><path d="M89,83.39l.18,0Z" style="fill:#b3b3b3"/><path d="M89.33,83.3l.19,0Z" style="fill:#b3b3b3"/></g><path d="M79.63,79c.43.65.91,1.29,1.36,2a4,4,0,0,0,.75.88,9.6,9.6,0,0,0,4.41,1.69,12.07,12.07,0,0,0,5-.92A24.85,24.85,0,0,1,79.63,79Z" style="fill:#ccc;mix-blend-mode:multiply"/><path d="M79,80.45c.43.65.91,1.29,1.36,2a3,3,0,0,0,.75.88c2.82,2,3,1.76,4.41,1.69a12.07,12.07,0,0,0,5-.92C83.87,85.52,81.71,83.14,79,80.45Z" style="fill:#ccc"/><path d="M96.34,69.93a9.68,9.68,0,0,0-1.49-2.79,12.54,12.54,0,0,0-7.32-2.89,9.74,9.74,0,0,0-4,1.28A24.84,24.84,0,0,1,96.34,69.93Z" style="fill:#666;mix-blend-mode:multiply"/><g style="mix-blend-mode:multiply"><path d="M90.43,40.78a6,6,0,0,1,.71.49,6,6,0,0,0-.71-.49A6.15,6.15,0,0,0,89,40.3,6.15,6.15,0,0,1,90.43,40.78Z" style="fill:#b3b3b3"/><path d="M84.4,40.44l.13-.05Z" style="fill:#b3b3b3"/><path d="M91.21,41.34l.35.3Z" style="fill:#b3b3b3"/><path d="M88.47,40.21l.5.09Z" style="fill:#b3b3b3"/><path d="M88,40.15l.5.06Z" style="fill:#b3b3b3"/><path d="M91.57,41.64c.17.15.36.33.55.53C91.92,42,91.74,41.79,91.57,41.64Z" style="fill:#b3b3b3"/><path d="M79.46,49.15h0Z" style="fill:#b3b3b3"/><path d="M84.25,40.51l.14-.06Z" style="fill:#b3b3b3"/><path d="M89.36,54.43l-.13.07A9.18,9.18,0,0,1,82,53.42,8.91,8.91,0,0,1,79.84,51,8.91,8.91,0,0,0,82,53.42a9.18,9.18,0,0,0,7.23,1.08Z" style="fill:#b3b3b3"/><path d="M93.4,43.82a10.38,10.38,0,0,0-.69-1A10.38,10.38,0,0,1,93.4,43.82Z" style="fill:#b3b3b3"/><path d="M92.41,42.49l-.2-.22Z" style="fill:#b3b3b3"/><path d="M89.43,54.39c5.88-3.3,4.85-8.81,4.85-8.81a10.6,10.6,0,0,0-.82-1.65,10.6,10.6,0,0,1,.82,1.65,5.56,5.56,0,0,1,.07.78,10.89,10.89,0,0,0-10.1-5.85,25.52,25.52,0,0,0-3.14,2,6,6,0,0,0-1.62,3.09,8.45,8.45,0,0,0-.08,3.07A10.89,10.89,0,0,0,89.43,54.39Z" style="fill:#b3b3b3"/></g><path d="M94.35,46.36a5.56,5.56,0,0,0-.07-.78,9.81,9.81,0,0,0-3.86-4.8c-2.47-1.21-5.89-.4-5.89-.4l-.29.13A10.89,10.89,0,0,1,94.35,46.36Z" style="fill:#666;mix-blend-mode:multiply"/><path d="M79.41,48.65c0,.33.06.67.07,1a3.31,3.31,0,0,0,.17.89A7.54,7.54,0,0,0,82,53.42a9.18,9.18,0,0,0,7.23,1.08l.2-.11A10.89,10.89,0,0,1,79.41,48.65Z" style="fill:#ccc;mix-blend-mode:multiply"/><path d="M78.16,49c0,.33,0,.67,0,1a3.31,3.31,0,0,0,.09.9,7.54,7.54,0,0,0,2.08,3.06,9.18,9.18,0,0,0,7.11,1.73l.21-.1C82.41,55.88,79.16,53.4,78.16,49Z" style="fill:#ccc"/><g style="mix-blend-mode:multiply"><path d="M113.34,49.24a1.74,1.74,0,0,1,.42-.28,7.21,7.21,0,0,1,2.09-.87,3.38,3.38,0,0,1,1.92.18,12.67,12.67,0,0,1,1.8,1.3h0a12.67,12.67,0,0,0-1.8-1.3,3.38,3.38,0,0,0-1.92-.18,7.21,7.21,0,0,0-2.09.87,1.74,1.74,0,0,0-.42.28h0Z" style="fill:#b3b3b3"/><path d="M112.35,51.26a4.69,4.69,0,0,0,6.74,4.11l.32-.17-.2.23a5.37,5.37,0,0,0,1.41-2.75s0,.08,0,.2a4.69,4.69,0,0,0-7.5-3.36l.11-.14a4.76,4.76,0,0,0-.82,1.66,5.09,5.09,0,0,0,1,3.92A5.09,5.09,0,0,1,112.35,51.26Z" style="fill:#b3b3b3"/></g><path d="M113.86,49a4.69,4.69,0,0,1,6.72,3.83c0-.13,0-.2,0-.2a5.68,5.68,0,0,0-1-3.1,12.67,12.67,0,0,0-1.8-1.3,3.38,3.38,0,0,0-1.92-.18,7.21,7.21,0,0,0-2.09.87,1.74,1.74,0,0,0-.42.28,2,2,0,0,0-.26.28A4.71,4.71,0,0,1,113.86,49Z" style="fill:#666;mix-blend-mode:multiply"/><path d="M119,55.66a5.88,5.88,0,0,0,.43-.46l-.32.17a4.69,4.69,0,0,1-6.74-4.11,5.09,5.09,0,0,0,1,3.7A4.83,4.83,0,0,0,119,55.66Z" style="fill:#ccc;mix-blend-mode:multiply"/><path d="M118.47,56.67a5.88,5.88,0,0,0,.43-.46l-.32.17a4.45,4.45,0,0,1-6.46-2.25,6.19,6.19,0,0,1-.28-1.85,5.09,5.09,0,0,0,1,3.7A4.83,4.83,0,0,0,118.47,56.67Z" style="fill:#ccc"/></g></g></g></svg>